# MagicaVoxel @ ephtracy

# material
mtllib prop2.mtl
usemtl palette

# normals
vn -1 0 0
vn 1 0 0
vn 0 0 1
vn 0 0 -1
vn 0 -1 0
vn 0 1 0

# texcoords
vt 0.0214844 0.5
vt 0.138672 0.5
vt 0.970703 0.5

# verts
v -4.5 0 0.5
v -4.5 0 -0.5
v -4.5 1 0.5
v -4.5 1 -0.5
v -1.5 0 1.5
v -1.5 0 0.5
v -1.5 0 -0.5
v -1.5 0 -1.5
v -1.5 1 1.5
v -1.5 1 0.5
v -1.5 1 -0.5
v -1.5 1 -1.5
v -0.5 0 4.5
v -0.5 0 3.5
v -0.5 0 1.5
v -0.5 0 0.5
v -0.5 0 -0.5
v -0.5 0 -1.5
v -0.5 0 -3.5
v -0.5 0 -4.5
v -0.5 1 4.5
v -0.5 1 3.5
v -0.5 1 1.5
v -0.5 1 0.5
v -0.5 1 -0.5
v -0.5 1 -1.5
v -0.5 1 -3.5
v -0.5 1 -4.5
v 0.5 0 1.5
v 0.5 0 0.5
v 0.5 0 -0.5
v 0.5 0 -1.5
v 0.5 1 1.5
v 0.5 1 0.5
v 0.5 1 -0.5
v 0.5 1 -1.5
v 1.5 0 0.5
v 1.5 0 -0.5
v 1.5 1 0.5
v 1.5 1 -0.5
v -1.5 0 0.5
v -1.5 0 -0.5
v -1.5 1 0.5
v -1.5 1 -0.5
v -0.5 0 1.5
v -0.5 0 0.5
v -0.5 0 -0.5
v -0.5 0 -1.5
v -0.5 1 1.5
v -0.5 1 0.5
v -0.5 1 -0.5
v -0.5 1 -1.5
v 0.5 0 4.5
v 0.5 0 3.5
v 0.5 0 1.5
v 0.5 0 0.5
v 0.5 0 -0.5
v 0.5 0 -1.5
v 0.5 0 -3.5
v 0.5 0 -4.5
v 0.5 1 4.5
v 0.5 1 3.5
v 0.5 1 1.5
v 0.5 1 0.5
v 0.5 1 -0.5
v 0.5 1 -1.5
v 0.5 1 -3.5
v 0.5 1 -4.5
v 1.5 0 1.5
v 1.5 0 0.5
v 1.5 0 -0.5
v 1.5 0 -1.5
v 1.5 1 1.5
v 1.5 1 0.5
v 1.5 1 -0.5
v 1.5 1 -1.5
v 4.5 0 0.5
v 4.5 0 -0.5
v 4.5 1 0.5
v 4.5 1 -0.5
v -0.5 0 4.5
v -0.5 1 4.5
v 0.5 0 4.5
v 0.5 1 4.5
v -1.5 0 1.5
v -1.5 1 1.5
v -0.5 0 1.5
v -0.5 1 1.5
v 0.5 0 1.5
v 0.5 1 1.5
v 1.5 0 1.5
v 1.5 1 1.5
v -4.5 0 0.5
v -4.5 1 0.5
v -3.5 0 0.5
v -3.5 1 0.5
v -1.5 0 0.5
v -1.5 1 0.5
v -0.5 0 0.5
v -0.5 1 0.5
v 0.5 0 0.5
v 0.5 1 0.5
v 1.5 0 0.5
v 1.5 1 0.5
v 3.5 0 0.5
v 3.5 1 0.5
v 4.5 0 0.5
v 4.5 1 0.5
v -1.5 0 -0.5
v -1.5 1 -0.5
v -0.5 0 -0.5
v -0.5 1 -0.5
v 0.5 0 -0.5
v 0.5 1 -0.5
v 1.5 0 -0.5
v 1.5 1 -0.5
v -0.5 0 -1.5
v -0.5 1 -1.5
v 0.5 0 -1.5
v 0.5 1 -1.5
v -0.5 0 1.5
v -0.5 1 1.5
v 0.5 0 1.5
v 0.5 1 1.5
v -1.5 0 0.5
v -1.5 1 0.5
v -0.5 0 0.5
v -0.5 1 0.5
v 0.5 0 0.5
v 0.5 1 0.5
v 1.5 0 0.5
v 1.5 1 0.5
v -4.5 0 -0.5
v -4.5 1 -0.5
v -3.5 0 -0.5
v -3.5 1 -0.5
v -1.5 0 -0.5
v -1.5 1 -0.5
v -0.5 0 -0.5
v -0.5 1 -0.5
v 0.5 0 -0.5
v 0.5 1 -0.5
v 1.5 0 -0.5
v 1.5 1 -0.5
v 3.5 0 -0.5
v 3.5 1 -0.5
v 4.5 0 -0.5
v 4.5 1 -0.5
v -1.5 0 -1.5
v -1.5 1 -1.5
v -0.5 0 -1.5
v -0.5 1 -1.5
v 0.5 0 -1.5
v 0.5 1 -1.5
v 1.5 0 -1.5
v 1.5 1 -1.5
v -0.5 0 -4.5
v -0.5 1 -4.5
v 0.5 0 -4.5
v 0.5 1 -4.5
v -0.5 0 4.5
v 0.5 0 4.5
v -0.5 0 3.5
v 0.5 0 3.5
v -1.5 0 1.5
v -0.5 0 1.5
v 0.5 0 1.5
v 1.5 0 1.5
v -4.5 0 0.5
v -3.5 0 0.5
v -1.5 0 0.5
v -0.5 0 0.5
v 0.5 0 0.5
v 1.5 0 0.5
v 3.5 0 0.5
v 4.5 0 0.5
v -4.5 0 -0.5
v -3.5 0 -0.5
v -1.5 0 -0.5
v -0.5 0 -0.5
v 0.5 0 -0.5
v 1.5 0 -0.5
v 3.5 0 -0.5
v 4.5 0 -0.5
v -1.5 0 -1.5
v -0.5 0 -1.5
v 0.5 0 -1.5
v 1.5 0 -1.5
v -0.5 0 -3.5
v 0.5 0 -3.5
v -0.5 0 -4.5
v 0.5 0 -4.5
v -0.5 1 4.5
v 0.5 1 4.5
v -0.5 1 3.5
v 0.5 1 3.5
v -1.5 1 1.5
v -0.5 1 1.5
v 0.5 1 1.5
v 1.5 1 1.5
v -4.5 1 0.5
v -3.5 1 0.5
v -1.5 1 0.5
v -0.5 1 0.5
v 0.5 1 0.5
v 1.5 1 0.5
v 3.5 1 0.5
v 4.5 1 0.5
v -4.5 1 -0.5
v -3.5 1 -0.5
v -1.5 1 -0.5
v -0.5 1 -0.5
v 0.5 1 -0.5
v 1.5 1 -0.5
v 3.5 1 -0.5
v 4.5 1 -0.5
v -1.5 1 -1.5
v -0.5 1 -1.5
v 0.5 1 -1.5
v 1.5 1 -1.5
v -0.5 1 -3.5
v 0.5 1 -3.5
v -0.5 1 -4.5
v 0.5 1 -4.5

# faces
f 3/1/1 2/1/1 1/1/1
f 4/1/1 2/1/1 3/1/1
f 9/3/1 6/3/1 5/3/1
f 10/3/1 6/3/1 9/3/1
f 11/3/1 8/3/1 7/3/1
f 12/3/1 8/3/1 11/3/1
f 21/1/1 14/1/1 13/1/1
f 22/3/1 15/3/1 14/3/1
f 22/1/1 14/1/1 21/1/1
f 23/3/1 15/3/1 22/3/1
f 24/2/1 17/2/1 16/2/1
f 25/2/1 17/2/1 24/2/1
f 26/3/1 19/3/1 18/3/1
f 27/1/1 20/1/1 19/1/1
f 27/3/1 19/3/1 26/3/1
f 28/1/1 20/1/1 27/1/1
f 33/3/1 30/3/1 29/3/1
f 34/3/1 30/3/1 33/3/1
f 35/3/1 32/3/1 31/3/1
f 36/3/1 32/3/1 35/3/1
f 39/3/1 38/3/1 37/3/1
f 40/3/1 38/3/1 39/3/1
f 41/3/2 42/3/2 43/3/2
f 43/3/2 42/3/2 44/3/2
f 45/3/2 46/3/2 49/3/2
f 49/3/2 46/3/2 50/3/2
f 47/3/2 48/3/2 51/3/2
f 51/3/2 48/3/2 52/3/2
f 53/1/2 54/1/2 61/1/2
f 54/3/2 55/3/2 62/3/2
f 61/1/2 54/1/2 62/1/2
f 62/3/2 55/3/2 63/3/2
f 56/2/2 57/2/2 64/2/2
f 64/2/2 57/2/2 65/2/2
f 58/3/2 59/3/2 66/3/2
f 59/1/2 60/1/2 67/1/2
f 66/3/2 59/3/2 67/3/2
f 67/1/2 60/1/2 68/1/2
f 69/3/2 70/3/2 73/3/2
f 73/3/2 70/3/2 74/3/2
f 71/3/2 72/3/2 75/3/2
f 75/3/2 72/3/2 76/3/2
f 77/1/2 78/1/2 79/1/2
f 79/1/2 78/1/2 80/1/2
f 83/1/3 82/1/3 81/1/3
f 84/1/3 82/1/3 83/1/3
f 87/3/3 86/3/3 85/3/3
f 88/3/3 86/3/3 87/3/3
f 91/3/3 90/3/3 89/3/3
f 92/3/3 90/3/3 91/3/3
f 95/1/3 94/1/3 93/1/3
f 96/1/3 94/1/3 95/1/3
f 97/3/3 96/3/3 95/3/3
f 98/3/3 96/3/3 97/3/3
f 101/2/3 100/2/3 99/2/3
f 102/2/3 100/2/3 101/2/3
f 105/3/3 104/3/3 103/3/3
f 106/3/3 104/3/3 105/3/3
f 107/1/3 106/1/3 105/1/3
f 108/1/3 106/1/3 107/1/3
f 111/3/3 110/3/3 109/3/3
f 112/3/3 110/3/3 111/3/3
f 115/3/3 114/3/3 113/3/3
f 116/3/3 114/3/3 115/3/3
f 119/3/3 118/3/3 117/3/3
f 120/3/3 118/3/3 119/3/3
f 121/3/4 122/3/4 123/3/4
f 123/3/4 122/3/4 124/3/4
f 125/3/4 126/3/4 127/3/4
f 127/3/4 126/3/4 128/3/4
f 129/3/4 130/3/4 131/3/4
f 131/3/4 130/3/4 132/3/4
f 133/1/4 134/1/4 135/1/4
f 135/1/4 134/1/4 136/1/4
f 135/3/4 136/3/4 137/3/4
f 137/3/4 136/3/4 138/3/4
f 139/2/4 140/2/4 141/2/4
f 141/2/4 140/2/4 142/2/4
f 143/3/4 144/3/4 145/3/4
f 145/3/4 144/3/4 146/3/4
f 145/1/4 146/1/4 147/1/4
f 147/1/4 146/1/4 148/1/4
f 149/3/4 150/3/4 151/3/4
f 151/3/4 150/3/4 152/3/4
f 153/3/4 154/3/4 155/3/4
f 155/3/4 154/3/4 156/3/4
f 157/1/4 158/1/4 159/1/4
f 159/1/4 158/1/4 160/1/4
f 163/1/5 162/1/5 161/1/5
f 164/1/5 162/1/5 163/1/5
f 166/3/5 164/3/5 163/3/5
f 167/3/5 164/3/5 166/3/5
f 171/3/5 166/3/5 165/3/5
f 172/3/5 166/3/5 171/3/5
f 173/3/5 168/3/5 167/3/5
f 174/3/5 168/3/5 173/3/5
f 177/1/5 170/1/5 169/1/5
f 178/3/5 171/3/5 170/3/5
f 178/1/5 170/1/5 177/1/5
f 179/3/5 171/3/5 178/3/5
f 180/2/5 173/2/5 172/2/5
f 181/2/5 173/2/5 180/2/5
f 182/3/5 175/3/5 174/3/5
f 183/1/5 176/1/5 175/1/5
f 183/3/5 175/3/5 182/3/5
f 184/1/5 176/1/5 183/1/5
f 185/3/5 180/3/5 179/3/5
f 186/3/5 180/3/5 185/3/5
f 187/3/5 182/3/5 181/3/5
f 188/3/5 182/3/5 187/3/5
f 189/3/5 187/3/5 186/3/5
f 190/3/5 187/3/5 189/3/5
f 191/1/5 190/1/5 189/1/5
f 192/1/5 190/1/5 191/1/5
f 193/1/6 194/1/6 195/1/6
f 195/1/6 194/1/6 196/1/6
f 195/3/6 196/3/6 198/3/6
f 198/3/6 196/3/6 199/3/6
f 197/3/6 198/3/6 203/3/6
f 203/3/6 198/3/6 204/3/6
f 199/3/6 200/3/6 205/3/6
f 205/3/6 200/3/6 206/3/6
f 201/1/6 202/1/6 209/1/6
f 202/3/6 203/3/6 210/3/6
f 209/1/6 202/1/6 210/1/6
f 210/3/6 203/3/6 211/3/6
f 204/2/6 205/2/6 212/2/6
f 212/2/6 205/2/6 213/2/6
f 206/3/6 207/3/6 214/3/6
f 207/1/6 208/1/6 215/1/6
f 214/3/6 207/3/6 215/3/6
f 215/1/6 208/1/6 216/1/6
f 211/3/6 212/3/6 217/3/6
f 217/3/6 212/3/6 218/3/6
f 213/3/6 214/3/6 219/3/6
f 219/3/6 214/3/6 220/3/6
f 218/3/6 219/3/6 221/3/6
f 221/3/6 219/3/6 222/3/6
f 221/1/6 222/1/6 223/1/6
f 223/1/6 222/1/6 224/1/6
